PathFileType	4	(X/Y/Z)	./resultDataOpenSim/trcMotMarkerGrf/sub06/qtm-03-01.trc
DataRate	CameraRate	NumFrames	NumMarkers	Units	OrigDataRate	OrigDataStartFrame	OrigNumFrames
250.000000	250.000000	14	24	m	250.000000	311	496
Frame#	Time	L.Toe.Tip			R.Toe.Tip			L.Ankle.Lat			R.Ankle.Lat			L.Ankle.Med			R.Ankle.Med			L.Heel			R.Heel			L.Knee.Lat			R.Knee.Lat			L.Knee.Med			R.Knee.Med			L.Thigh.Upper			R.Thigh.Upper			L.ASIS			R.ASIS			V.Sacral			L.Acromium			R.Acromium			C7			L.Elbow			R.Elbow			L.Wrist.Lat			R.Wrist.Lat
		X1	Y1	Z1	X2	Y2	Z2	X3	Y3	Z3	X4	Y4	Z4	X5	Y5	Z5	X6	Y6	Z6	X7	Y7	Z7	X8	Y8	Z8	X9	Y9	Z9	X10	Y10	Z10	X11	Y11	Z11	X12	Y12	Z12	X13	Y13	Z13	X14	Y14	Z14	X15	Y15	Z15	X16	Y16	Z16	X17	Y17	Z17	X18	Y18	Z18	X19	Y19	Z19	X20	Y20	Z20	X21	Y21	Z21	X22	Y22	Z22	X23	Y23	Z23	X24	Y24	Z24

311	1.24	0.39546941	0.11913011	-0.047898132	0.91676143	0.036051272	0.102069	0.40989217	0.24866343	-0.083333841	0.78079382	0.058921758	0.13157815	0.43244188	0.25410318	-0.0021113925	0.79655492	0.082887601	0.045130202	0.36857885	0.31010714	-0.035040518	0.72386972	0.038010773	0.074776743	0.75315297	0.39369446	-0.12079219	0.84201987	0.44286814	0.16936591	0.75977226	0.37743492	0.0019145784	0.80082174	0.43437059	0.048358443	0.65536899	0.77648139	-0.096420386	0.70462812	0.80065943	0.24731593	0.73725402	0.83049148	-0.072584184	0.79032802	0.85084459	0.17005574	0.57766424	0.91028516	0.090984801	0.68841134	1.3227767	-0.1170525	0.71183865	1.3040624	0.24418588	0.62268134	1.3509904	0.068670933	0.69484994	0.9969625	-0.1745032	0.62736247	1.0023752	0.32222827	0.89636462	0.85349335	-0.16773108	0.78294134	0.81764561	0.37336497
312	1.244	0.40988768	0.12136893	-0.048495043	0.9166335	0.036084101	0.10214465	0.42329402	0.25117475	-0.083742637	0.78052254	0.058927925	0.13174617	0.44565822	0.25652862	-0.0024084686	0.79639978	0.083116716	0.045362644	0.38128578	0.31207808	-0.035236023	0.72376665	0.038048316	0.074920947	0.76571818	0.3974508	-0.1206576	0.84291807	0.44305776	0.16976981	0.77220165	0.3810709	0.0022248438	0.80209803	0.43484725	0.048530618	0.66179237	0.77889257	-0.096107526	0.70864752	0.80211996	0.24765029	0.7432391	0.83273748	-0.072140764	0.79528467	0.85284534	0.17099299	0.58318465	0.91217727	0.090891594	0.69348335	1.3249536	-0.11691853	0.7171513	1.3065272	0.24419008	0.62793693	1.3529999	0.06875426	0.69799094	0.99938726	-0.1743439	0.63451476	1.0041337	0.32279765	0.8971276	0.85276579	-0.16933613	0.79413938	0.82207815	0.37208668
313	1.248	0.42439366	0.12339575	-0.049082359	0.91649933	0.036123697	0.1022039	0.43669047	0.25344242	-0.084099846	0.78017347	0.058985587	0.13195683	0.45888496	0.25872127	-0.0026937477	0.79623888	0.083318081	0.045572379	0.39398093	0.31379128	-0.035407542	0.72363919	0.038107356	0.075090394	0.77822851	0.40127216	-0.1204826	0.84373141	0.44322579	0.17009575	0.78449462	0.38482461	0.0026077935	0.803321	0.43524203	0.048648113	0.66837287	0.78126721	-0.096057413	0.71271219	0.80358949	0.24794116	0.74941773	0.8350425	-0.0715712	0.8002397	0.85484592	0.17189241	0.58862818	0.91404582	0.090782285	0.69859977	1.3270948	-0.11678464	0.72246151	1.3089725	0.2441958	0.63319918	1.3549609	0.068829505	0.70116813	1.0018258	-0.17419042	0.64161928	1.0058989	0.32335981	0.89781897	0.85208395	-0.17095465	0.80523196	0.82659947	0.37077952
314	1.252	0.43898404	0.1252059	-0.049661528	0.91636183	0.036167903	0.10224734	0.45005454	0.25546259	-0.084380663	0.77983494	0.059077769	0.13217644	0.4721433	0.26068491	-0.0029577297	0.79607838	0.083488601	0.045750422	0.40665258	0.31525524	-0.035534928	0.72350326	0.038182684	0.075260469	0.79065771	0.40515804	-0.12027349	0.84445614	0.44337477	0.17033825	0.7965326	0.38869378	0.0030828646	0.80430133	0.4355719	0.048764147	0.67506606	0.78360332	-0.096240777	0.71685936	0.80505684	0.24818728	0.75585914	0.83743968	-0.070829258	0.80520376	0.85683488	0.17275561	0.59406378	0.91587914	0.090656437	0.70377118	1.3291911	-0.11666705	0.72776879	1.3113895	0.2442014	0.63845582	1.3568869	0.068906085	0.70436466	1.0042616	-0.17399174	0.64868357	1.0076604	0.32391608	0.89844298	0.85144548	-0.17258402	0.81622559	0.83120654	0.36945074
315	1.256	0.45365559	0.1267994	-0.050243655	0.91622638	0.036211704	0.1022756	0.46339146	0.2572339	-0.084600506	0.77958336	0.059152857	0.13236758	0.48545549	0.26243089	-0.0031870977	0.79592023	0.083635639	0.04589867	0.41930519	0.3164641	-0.035602844	0.72337597	0.038257664	0.07540732	0.80298854	0.40910349	-0.12002994	0.84512417	0.44351942	0.17051509	0.80828681	0.39266897	0.0036426618	0.80490767	0.43587831	0.048916883	0.68178759	0.78591179	-0.09651064	0.72109354	0.80651915	0.24839782	0.76243282	0.83988348	-0.070007114	0.8101913	0.85880097	0.17357895	0.5995405	0.91766332	0.090509571	0.70899574	1.3312266	-0.11656775	0.73307081	1.3137692	0.24420499	0.64368879	1.3587894	0.068991069	0.70755147	1.0066734	-0.17374035	0.65571906	1.0094066	0.32446962	0.89900004	0.85085183	-0.17422336	0.82712052	0.83589464	0.36810075
316	1.26	0.46840959	0.12818274	-0.050839195	0.9161002	0.036251169	0.1022911	0.47674362	0.25873432	-0.084796716	0.7794154	0.059176996	0.13252438	0.49879762	0.26396631	-0.0033678401	0.79576088	0.08377402	0.046032019	0.43194981	0.3174079	-0.035613516	0.72326734	0.038316142	0.07552106	0.81521685	0.41309495	-0.11974582	0.84576132	0.44366434	0.1706439	0.81982267	0.39670626	0.0042622636	0.80518165	0.43617306	0.049092947	0.68848047	0.78820618	-0.096755091	0.72538391	0.80797919	0.24858772	0.76895915	0.8423067	-0.069225477	0.81521657	0.86072952	0.17436039	0.60504224	0.91939006	0.090342852	0.71425007	1.3331853	-0.1164711	0.73836694	1.3161052	0.24420624	0.648891	1.360667	0.069088897	0.71068192	1.0090372	-0.17343143	0.66273608	1.0111275	0.32502175	0.89949493	0.85029993	-0.17586956	0.83791497	0.84065134	0.36672374
317	1.264	0.48325204	0.12936129	-0.051448696	0.9159885	0.036286309	0.10229787	0.49015396	0.25994571	-0.084993973	0.77928723	0.059158679	0.13266107	0.51209535	0.26528718	-0.0034912227	0.79559776	0.083916088	0.046163385	0.44459013	0.31808592	-0.035586985	0.72317488	0.03835472	0.075611671	0.82735461	0.41711054	-0.11941196	0.84637617	0.44380173	0.17073325	0.83123353	0.40074597	0.0049217627	0.80519822	0.43642371	0.049219987	0.69514338	0.79048847	-0.097011587	0.72970457	0.80943332	0.24875987	0.77535385	0.84468173	-0.068508586	0.8202878	0.86260157	0.17510274	0.61051062	0.92105878	0.090166316	0.7195063	1.3350636	-0.11636208	0.74366034	1.3183926	0.24420709	0.65406985	1.3625077	0.069197638	0.71373422	1.0113393	-0.17307563	0.66973957	1.0128163	0.32557101	0.89994123	0.84978525	-0.17751373	0.84861154	0.84545003	0.36531362
318	1.268	0.49818826	0.13033415	-0.05206044	0.91589142	0.036319861	0.10230017	0.50360804	0.26089357	-0.085180776	0.77916989	0.059131404	0.13278942	0.52531169	0.26638687	-0.003570388	0.7954358	0.084064075	0.046293787	0.45722029	0.31850642	-0.035552533	0.72307694	0.03838813	0.075716613	0.8394213	0.42112716	-0.11902048	0.84696912	0.44392123	0.17078689	0.84261702	0.40476444	0.0055971375	0.80491887	0.43661243	0.049244477	0.70178414	0.79275822	-0.097383024	0.73404645	0.81086929	0.24890241	0.78157648	0.84701798	-0.067781616	0.82540201	0.86440025	0.17580958	0.61591728	0.92267644	0.089993974	0.72475389	1.3368743	-0.11623845	0.74895398	1.3206268	0.24421047	0.65924132	1.3642942	0.069303019	0.71672458	1.0135809	-0.17270549	0.67672454	1.0144686	0.32611586	0.90035795	0.84930333	-0.17914549	0.85921275	0.85025512	0.36386968
319	1.272	0.51322284	0.13109739	-0.052660728	0.915805	0.036354349	0.10230025	0.51705325	0.26163181	-0.085331003	0.77905904	0.059121622	0.13291185	0.5384824	0.26726492	-0.0036341109	0.79528609	0.08421242	0.046419119	0.46983896	0.31867282	-0.035532235	0.72294646	0.038439537	0.075879293	0.85141817	0.42513252	-0.11857324	0.84754392	0.44401843	0.17081135	0.85405235	0.40878816	0.0062537405	0.80439856	0.43678992	0.04920584	0.70842689	0.79503239	-0.097869745	0.73841482	0.81226722	0.24900468	0.78757459	0.84933221	-0.066940581	0.83054501	0.86611707	0.17648086	0.62130521	0.9242512	0.089836281	0.72999778	1.3386307	-0.11610311	0.75424704	1.3228023	0.24421885	0.66442099	1.3660121	0.069389066	0.71967848	1.0157692	-0.17235266	0.68367533	1.0160791	0.32665651	0.90075855	0.84884367	-0.180761	0.86971882	0.85504262	0.36239865
320	1.276	0.52836796	0.13164881	-0.053254439	0.91572557	0.036390085	0.10229765	0.53046921	0.26218911	-0.085442183	0.77896746	0.059129913	0.13302005	0.55163708	0.2679244	-0.0036926563	0.7951594	0.084355224	0.046537372	0.48246004	0.3185767	-0.035536892	0.72278973	0.038517789	0.076090769	0.86330901	0.42913031	-0.11808507	0.84811711	0.44409508	0.17082126	0.86554136	0.41285578	0.0068737109	0.80390121	0.4370556	0.049181825	0.71519157	0.79733805	-0.098326737	0.74282846	0.81359935	0.24907208	0.79340496	0.851635	-0.065946779	0.83569853	0.86774674	0.1771117	0.62676142	0.92578605	0.089696622	0.73524667	1.3403303	-0.1159567	0.75953653	1.324916	0.24423264	0.66961547	1.3676562	0.069455271	0.72261279	1.0179088	-0.17203857	0.69057698	1.01764	0.32719241	0.90113764	0.84839474	-0.18236649	0.88013411	0.85981334	0.36091129
321	1.28	0.54364595	0.13198956	-0.053872973	0.91565222	0.036425281	0.10229101	0.54387361	0.26255589	-0.085536623	0.77891842	0.059138128	0.13309842	0.56477365	0.26836697	-0.0037383737	0.79505886	0.084491382	0.046648682	0.49509749	0.31820892	-0.035571156	0.72265029	0.038609233	0.076282943	0.87503966	0.43312525	-0.11757207	0.84871998	0.44415414	0.1708383	0.8770283	0.41697672	0.0074712254	0.80361687	0.43746184	0.049187104	0.72223675	0.79967657	-0.098596555	0.74729718	0.814839	0.2491253	0.79931906	0.85392016	-0.064905633	0.84084938	0.86927892	0.17769562	0.63235994	0.92727897	0.089568174	0.7405072	1.3419606	-0.11580205	0.76482082	1.3269691	0.24425038	0.67482049	1.3692264	0.06951393	0.72553312	1.0199968	-0.17177417	0.69743241	1.0191405	0.32772068	0.90147318	0.84795968	-0.18397314	0.89046534	0.86458144	0.35941485
322	1.284	0.55904987	0.13211971	-0.054532308	0.91558482	0.036458359	0.10227988	0.5572931	0.26271105	-0.08564557	0.77892815	0.059128946	0.13313667	0.57792853	0.26859176	-0.0037819125	0.79497485	0.084624478	0.046756821	0.50774423	0.31757219	-0.03562898	0.72256698	0.038695221	0.076392923	0.88658031	0.43710519	-0.11704106	0.84938295	0.44419811	0.17088102	0.88846327	0.42111969	0.008067212	0.80353099	0.43793932	0.049187463	0.72956017	0.80201002	-0.098676508	0.75180288	0.81597369	0.24918629	0.80554984	0.85614962	-0.064009818	0.84599362	0.87069997	0.17823257	0.63810628	0.92872336	0.089422041	0.74578012	1.3435144	-0.11564838	0.77010059	1.3289614	0.24427145	0.68002756	1.370724	0.069575279	0.72843787	1.0220252	-0.17156012	0.70427145	1.0205738	0.32824302	0.90175399	0.84755412	-0.18558335	0.90071573	0.86935658	0.35790912
323	1.288	0.57450546	0.13203244	-0.055181585	0.91552145	0.036489143	0.10226623	0.57076126	0.26263867	-0.085799011	0.77897491	0.059103267	0.13314588	0.59118684	0.26859595	-0.0038544381	0.79488659	0.084760099	0.046873556	0.52038882	0.31667137	-0.035699531	0.72254991	0.038769885	0.076402733	0.89793664	0.44105092	-0.11649886	0.85009241	0.44423056	0.17094486	0.89981078	0.42523691	0.0086555134	0.80358435	0.4383456	0.049184025	0.73697528	0.80429772	-0.098717862	0.75631875	0.81700409	0.24926356	0.81208938	0.85827464	-0.063360943	0.85113298	0.87199954	0.1787312	0.64389907	0.93010749	0.089190602	0.7510584	1.3449924	-0.11550545	0.77537463	1.3308831	0.24429446	0.68523107	1.3721503	0.06964499	0.73132262	1.0239869	-0.17138574	0.71113848	1.0219453	0.32877086	0.90199587	0.84718547	-0.18718727	0.91089602	0.87414057	0.35638934
324	1.292	0.58999186	0.13172785	-0.055774862	0.91545789	0.036516843	0.10225631	0.58430415	0.26233092	-0.086000005	0.77898791	0.05908981	0.13316257	0.60457932	0.26837942	-0.0039630491	0.79477523	0.084905696	0.047017826	0.53304783	0.31550032	-0.03578702	0.72257278	0.038843564	0.076349002	0.90912548	0.44495704	-0.11596178	0.85079599	0.44425355	0.17100417	0.91105684	0.42930005	0.0092356814	0.80372114	0.43857376	0.049232706	0.7442981	0.80653259	-0.098865945	0.76084076	0.8179305	0.24934762	0.81879236	0.86028724	-0.062882779	0.85626521	0.87317282	0.17920173	0.6495594	0.93141791	0.088777384	0.75633328	1.3463925	-0.11537515	0.78063858	1.3327184	0.24431559	0.69043092	1.3735036	0.069728899	0.73417813	1.0258805	-0.17122863	0.71806164	1.0232651	0.32931478	0.90222172	0.84684418	-0.18877902	0.92103542	0.8789327	0.35484812
